<svg width="35" height="35" viewBox="0 0 35 35" fill="none" xmlns="http://www.w3.org/2000/svg">
<circle cx="17.5" cy="17.5" r="17" stroke="white"/>
<path d="M21.9995 15.1198C21.9995 13.7619 21.4938 12.4597 20.5936 11.4996C19.6935 10.5394 18.4727 10 17.1997 10C15.9267 10 14.7059 10.5394 13.8057 11.4996C12.9056 12.4597 12.3999 13.7619 12.3999 15.1198C12.3999 21.0929 10 22.7994 10 22.7994H24.3994C24.3994 22.7994 21.9995 21.0929 21.9995 15.1198Z" stroke="white" stroke-width="1.14" stroke-linecap="round" stroke-linejoin="round"/>
<path d="M18.5836 25.1993C18.443 25.4418 18.2411 25.6431 17.9982 25.7829C17.7553 25.9228 17.48 25.9965 17.1997 25.9965C16.9194 25.9965 16.644 25.9228 16.4011 25.7829C16.1583 25.6431 15.9564 25.4418 15.8157 25.1993" stroke="white" stroke-width="1.14" stroke-linecap="round" stroke-linejoin="round"/>
</svg>
